<svg version="1.1" xmlns="http://www.w3.org/2000/svg" xmlns:xlink="http://www.w3.org/1999/xlink" x="0px" y="0px"
	 width="429.183px" height="429.183px" viewBox="0 0 429.183 429.183" style="enable-background:new 0 0 429.183 429.183;"
	 xml:space="preserve">
<g>
	<g>
		<path d="M400.061,77.791c-3.845,0-6.968-3.54-6.968-7.901V37.375c0-13.068-10.648-23.717-23.714-23.717H222.504
			c-13.068,0-23.72,10.648-23.72,23.717v28.282c0,4.359-3.529,8.343-7.726,9.526c-19.883,5.642-31.092,20.589-36.434,30.818
			c-2.021,3.872-6.642,7.973-10.783,9.339c-16.59,5.489-32.271,16.32-40.645,28.446L34.07,243.858
			c-11.637,16.863-24.293,43.787-28.196,60.006l-5.601,23.242c-1.018,4.245,0.894,8.343,4.276,9.155
			c3.379,0.812,6.952-1.965,7.97-6.21l5.586-23.222c3.618-14.98,15.419-40.01,26.322-55.792l69.126-100.079
			c10.237-14.828,33.235-26.875,51.247-26.875h52.44h4.639h47.357c10.399,0,18.859,8.455,18.859,18.842v3.936
			c0,10.395-8.455,18.857-18.859,18.857h-47.357h-4.639h-42.835c-3.469,0-6.294,2.818-6.294,6.296c0,3.469,2.818,6.294,6.294,6.294
			h16.48c4.359,0,7.898,3.54,7.898,7.901v1.912c0,4.362-0.962,11.312-2.511,15.389c-23.13,60.989-95.598,70.043-99.051,70.444
			c-1.673,0.168-3.166,1.006-4.225,2.315c-1.051,1.311-1.526,2.961-1.343,4.631c0.355,3.189,3.042,5.597,6.294,5.597
			c0.01,0,0.65-0.046,0.65-0.046c0.812-0.086,62.101-7.581,95.755-53.456c2.582-3.519,4.43-2.996,4.43,1.366V339.39
			c0,6.779,2.869,12.889,7.452,17.199c3.174,2.996,3.768,6.581,0.15,9.029c-25.786,17.453-54.55,21.078-73.938,21.078
			c-10.679,0-17.783-1.147-18.547-1.265c-1.574-0.31-3.184,0.168-4.41,1.204c-1.208,1.016-1.902,2.508-1.902,4.107v19.394
			c0,2.96,2.425,5.388,5.403,5.388c2.971,0,5.395-2.428,5.395-5.388c0,0,0-2.996,0-6.683c0-3.692,2.757-6.449,6.17-6.322
			c1.881,0.071,3.951,0.117,6.185,0.117c23.552,0,59.615-4.784,89.888-29.001c3.402-2.722,9.536-5.124,13.894-5.124h134.841
			c13.065,0,23.714-10.668,23.714-23.734v-66.856c0-4.362,3.123-7.901,6.967-7.901h6.967c12.223,0,22.171-11.816,22.171-26.354
			v-2.097c0-5.525-1.453-10.624-3.926-14.838c-2.203-3.769-2.203-8.471,0-12.238c2.463-4.22,3.926-9.313,3.926-14.838v-2.1
			c0-5.522-1.453-10.618-3.926-14.846c-2.198-3.768-2.203-8.475,0-12.243c2.463-4.22,3.926-9.315,3.926-14.838v-2.1
			c0-5.522-1.453-10.618-3.926-14.838c-2.203-3.768-2.203-8.467,0-12.228c2.463-4.22,3.926-9.315,3.926-14.838v-2.1
			c0-14.536-9.948-26.354-22.171-26.354C407.037,77.791,403.919,77.791,400.061,77.791z M229.775,178.294h39.461
			c17.352,0,31.453-14.102,31.453-31.443v-3.933c0-17.326-14.102-31.435-31.453-31.435h-39.461c-4.357,0-7.896-3.54-7.896-7.899
			V64.763c0-4.359,3.539-7.898,7.896-7.898h132.327c4.361,0,7.901,3.539,7.901,7.898v244.703c0,4.361-3.54,7.901-7.901,7.901
			H229.775c-4.357,0-7.896-3.54-7.896-7.901V186.195C221.879,181.833,225.418,178.294,229.775,178.294z M369.379,353.842H222.504
			c-7.958,0-14.437-6.495-14.437-14.457V215.99c0-4.357-0.132-7.574-0.322-7.186c-0.183,0.386,1.018-2.584,2.354-6.73
			c1.604-5.018,2.922-10.326,3.895-15.942c0.744-4.299,1.579-7.823,2.173-7.823c0.592,0,1.074,3.54,1.074,7.901v133.472
			c0,1.279,1.033,2.33,2.313,2.33h152.771c1.279,0,2.315-1.051,2.315-2.33V54.549c0-1.28-1.036-2.331-2.315-2.331H219.554
			c-1.28,0-2.313,1.051-2.313,2.331v49.035c0,4.359-3.539,7.899-7.901,7.899h-35.731c-4.36,0-6.391-3.222-3.816-6.746
			c5.72-7.835,15.571-16.384,30.227-18.692c4.306-0.678,7.876-3.255,7.876-6.533c0-3.27,0.094-9.463,0.119-13.825
			c0.063-10.656,0.063-28.312,0.063-28.312c0-7.965,6.477-14.442,14.432-14.442h146.875c7.973,0,14.438,6.477,14.438,14.442v302.01
			C383.811,347.347,377.352,353.842,369.379,353.842z M407.037,253.826c0,0-2.544,0-5.688,0c-3.143,0-5.687-3.539-5.687-7.901
			v-17.402c0-4.361,2.544-7.901,5.687-7.901h5.688c6.271,0,11.37,6.978,11.37,15.56v2.097
			C418.407,246.849,413.309,253.826,407.037,253.826z M407.037,209.815c0,0-2.544,0-5.688,0c-3.143,0-5.687-3.54-5.687-7.901
			v-17.417c0-4.362,2.544-7.901,5.687-7.901h5.688c6.271,0,11.37,6.993,11.37,15.572v2.1
			C418.407,202.838,413.309,209.815,407.037,209.815z M407.037,165.797c0,0-2.544,0-5.688,0c-3.143,0-5.687-3.539-5.687-7.901
			v-17.402c0-4.362,2.544-7.901,5.687-7.901h5.688c6.271,0,11.37,6.978,11.37,15.557v2.1
			C418.407,158.82,413.309,165.797,407.037,165.797z M407.037,121.794c0,0-2.544,0-5.688,0c-3.143,0-5.687-3.54-5.687-7.901V96.475
			c0-4.362,2.544-7.901,5.687-7.901h5.688c6.271,0,11.37,6.993,11.37,15.572v2.102C418.407,114.816,413.309,121.794,407.037,121.794
			z"/>
		<path d="M308.981,33.473h-26.075c-1.274,0-2.315,1.033-2.315,2.312c0,1.28,1.041,2.331,2.315,2.331h26.075
			c1.279,0,2.315-1.051,2.315-2.331C311.297,34.506,310.261,33.473,308.981,33.473z"/>
		<path d="M309.296,327.294h-26.71c-5.474,0-9.952,4.459-9.952,9.938v1.59c0,5.475,4.474,9.953,9.952,9.953h26.71
			c5.479,0,9.958-4.469,9.958-9.953v-1.59C319.244,331.758,314.775,327.294,309.296,327.294z M314.598,338.821
			c0,2.93-2.376,5.312-5.307,5.312h-26.71c-2.925,0-5.312-2.382-5.312-5.312v-1.59c0-2.93,2.387-5.306,5.312-5.306h26.71
			c2.931,0,5.307,2.376,5.307,5.306V338.821z"/>
	</g>
</g>
<g>
</g>
<g>
</g>
<g>
</g>
<g>
</g>
<g>
</g>
<g>
</g>
<g>
</g>
<g>
</g>
<g>
</g>
<g>
</g>
<g>
</g>
<g>
</g>
<g>
</g>
<g>
</g>
<g>
</g>
</svg>
